<svg width="103" height="102" viewBox="0 0 103 102" version="1.1" xmlns="http://www.w3.org/2000/svg" xmlns:xlink="http://www.w3.org/1999/xlink">
<title>dd</title>
<desc>Created using Figma</desc>
<g id="Canvas" transform="translate(10130 -1920)">
<g id="dd">
<g id="Group">
<g id="Group">
<g id="Group">
<g id="Vector">
<use xlink:href="#path0_fill" transform="translate(-10130 1920)" fill="#03558D"/>
</g>
</g>
<g id="Group">
<g id="Vector">
<use xlink:href="#path1_fill" transform="translate(-10123.2 1926.69)" fill="#03558D"/>
</g>
</g>
<g id="Group">
<g id="Vector">
<use xlink:href="#path2_fill" transform="translate(-10109.7 1926.69)" fill="#03558D"/>
</g>
</g>
<g id="Group">
<g id="Vector">
<use xlink:href="#path3_fill" transform="translate(-10123.2 1940.07)" fill="#03558D"/>
</g>
</g>
<g id="Group">
<g id="Vector">
<use xlink:href="#path4_fill" transform="translate(-10092.9 1940.07)" fill="#03558D"/>
</g>
</g>
<g id="Group">
<g id="Vector">
<use xlink:href="#path3_fill" transform="translate(-10059.1 1940.07)" fill="#03558D"/>
</g>
</g>
</g>
</g>
</g>
</g>
<defs>
<path id="path0_fill" d="M 88.6475 102C 86.3258 102 84.4262 100.119 84.4262 97.8197C 84.4262 96.0848 85.5449 94.5172 87.1912 93.9111L 87.7611 93.702L 87.74 93.0959C 87.5078 86.9299 85.6504 80.8893 82.3789 75.643L 82.1256 75.2459L 69.2295 75.2459L 69.1662 75.9984C 68.8496 79.5098 67.4566 82.8332 65.1559 85.5713L 64.0162 86.9508L 67.541 86.9508L 67.541 88.623L 64.1639 88.623L 64.1639 93.6393L 67.541 93.6393L 67.541 95.3115L 64.1639 95.3115L 64.1639 102L 38.8361 102L 38.8361 95.3115L 35.459 95.3115L 35.459 93.6393L 38.8361 93.6393L 38.8361 88.623L 35.459 88.623L 35.459 86.9508L 39.0049 86.9508L 37.8652 85.5713C 35.5645 82.8332 34.1715 79.5098 33.8549 75.9984L 33.7705 75.2459L 20.8744 75.2459L 20.6211 75.643C 17.3496 80.8893 15.4922 86.9299 15.26 93.0959L 15.2389 93.702L 15.8088 93.9111C 17.4551 94.5172 18.5738 96.0848 18.5738 97.8197C 18.5738 100.119 16.6742 102 14.3525 102C 12.0307 102 10.1311 100.119 10.1311 97.8197C 10.1311 96.0639 11.2709 94.4754 12.9805 93.8902L 13.5293 93.702L 13.5504 93.1377C 13.7615 87.2434 15.3023 81.6418 18.1516 76.5L 18.827 75.2668L 0 75.2668L 0 0L 103 0L 103 75.2459L 84.1729 75.2459L 84.8484 76.4791C 87.6977 81.6209 89.2385 87.2225 89.4496 93.1168L 89.4707 93.6812L 90.0195 93.8693C 91.7291 94.4545 92.8689 96.043 92.8689 97.7988C 92.8689 100.119 90.9693 102 88.6475 102ZM 88.6475 95.3115C 87.2545 95.3115 86.1148 96.4402 86.1148 97.8197C 86.1148 99.1992 87.2545 100.328 88.6475 100.328C 90.0406 100.328 91.1803 99.1992 91.1803 97.8197C 91.1803 96.4402 90.0406 95.3115 88.6475 95.3115ZM 40.5246 100.328L 62.4754 100.328L 62.4754 95.3115L 40.5246 95.3115L 40.5246 100.328ZM 14.3525 95.3115C 12.9594 95.3115 11.8197 96.4402 11.8197 97.8197C 11.8197 99.1992 12.9594 100.328 14.3525 100.328C 15.7455 100.328 16.8852 99.1992 16.8852 97.8197C 16.8852 96.4402 15.7455 95.3115 14.3525 95.3115ZM 40.5246 93.6393L 62.4754 93.6393L 62.4754 88.623L 40.5246 88.623L 40.5246 93.6393ZM 51.5 68.5574C 54.7504 68.5574 57.4098 71.191 57.4098 74.4098C 57.4098 77.0643 55.5947 79.3844 52.9775 80.0533L 52.3443 80.2205L 52.3443 86.9508L 62.4754 86.9508L 62.4754 85.9893L 62.7287 85.7385C 65.8314 82.7287 67.541 78.6947 67.541 74.4098C 67.541 65.652 60.3436 58.5246 51.5 58.5246C 42.6564 58.5246 35.459 65.652 35.459 74.4098C 35.459 78.6947 37.1686 82.7287 40.2713 85.7385L 40.5246 85.9893L 40.5246 86.9508L 50.6557 86.9508L 50.6557 80.2205L 50.0225 80.0533C 47.4053 79.3844 45.5902 77.0643 45.5902 74.4098C 45.5902 71.191 48.2496 68.5574 51.5 68.5574ZM 51.5 70.2295C 49.1783 70.2295 47.2787 72.1107 47.2787 74.4098C 47.2787 76.709 49.1783 78.5902 51.5 78.5902C 53.8217 78.5902 55.7213 76.709 55.7213 74.4098C 55.7213 72.1107 53.8217 70.2295 51.5 70.2295ZM 66.9711 60.134C 73.3664 62.9766 78.8541 67.4914 82.8221 73.2184L 83.0754 73.5738L 101.311 73.5738L 101.311 15.0492L 1.68852 15.0492L 1.68852 73.5738L 19.9246 73.5738L 20.1779 73.2184C 24.1459 67.4914 29.6336 62.9557 36.0289 60.134L 35.6912 58.5246L 15.1334 58.5246L 14.9434 59.0889C 14.3525 60.7611 12.7484 61.8689 10.9754 61.8689C 8.65369 61.8689 6.7541 59.9877 6.7541 57.6885C 6.7541 55.3893 8.65369 53.5082 10.9754 53.5082C 12.7484 53.5082 14.3314 54.6369 14.9434 56.2881L 15.1334 56.8525L 87.8666 56.8525L 88.0566 56.2881C 88.6475 54.616 90.2516 53.5082 92.0246 53.5082C 94.3463 53.5082 96.2459 55.3893 96.2459 57.6885C 96.2459 59.9877 94.3463 61.8689 92.0246 61.8689C 90.2516 61.8689 88.6687 60.7402 88.0566 59.0889L 87.8666 58.5246L 67.3088 58.5246L 66.9711 60.134ZM 64.6494 62.684C 67.2455 65.5266 68.7863 69.0381 69.1451 72.8213L 69.2084 73.5738L 81.0281 73.5738L 79.9516 72.2152C 76.1313 67.4496 71.1713 63.6873 65.5992 61.3463L 64.6494 62.684ZM 37.4008 61.3463C 31.8287 63.6873 26.8686 67.4496 23.0484 72.2152L 21.9719 73.5738L 33.7916 73.5738L 33.8549 72.8213C 34.1926 69.0381 35.7545 65.5475 38.3506 62.684L 37.4008 61.3463ZM 92.0246 55.1803C 90.6316 55.1803 89.4918 56.309 89.4918 57.6885C 89.4918 59.068 90.6316 60.1967 92.0246 60.1967C 93.4176 60.1967 94.5574 59.068 94.5574 57.6885C 94.5574 56.309 93.4176 55.1803 92.0246 55.1803ZM 10.9754 55.1803C 9.58238 55.1803 8.44262 56.309 8.44262 57.6885C 8.44262 59.068 9.58238 60.1967 10.9754 60.1967C 12.3684 60.1967 13.5082 59.068 13.5082 57.6885C 13.5082 56.309 12.3684 55.1803 10.9754 55.1803ZM 1.68852 13.377L 101.311 13.377L 101.311 1.67213L 1.68852 1.67213L 1.68852 13.377Z"/>
<path id="path1_fill" d="M 8.44262 0L 0 0L 0 1.67213L 8.44262 1.67213L 8.44262 0Z"/>
<path id="path2_fill" d="M 1.68852 0L 0 0L 0 1.67213L 1.68852 1.67213L 1.68852 0Z"/>
<path id="path3_fill" d="M 0 28.4262L 0 0L 25.3279 0L 25.3279 28.4262L 0 28.4262ZM 1.68852 26.7541L 23.6393 26.7541L 23.6393 1.67213L 1.68852 1.67213L 1.68852 26.7541Z"/>
<path id="path4_fill" d="M 0 28.4262L 0 0L 28.7049 0L 28.7049 28.4262L 0 28.4262ZM 1.68852 26.7541L 27.0164 26.7541L 27.0164 1.67213L 1.68852 1.67213L 1.68852 26.7541Z"/>
</defs>
</svg>
