<svg width="74" height="104" viewBox="0 0 74 104" version="1.1" xmlns="http://www.w3.org/2000/svg" xmlns:xlink="http://www.w3.org/1999/xlink">
<title>ddaf</title>
<desc>Created using Figma</desc>
<g id="Canvas" transform="translate(10699 -1919)">
<g id="ddaf">
<g id="Group">
<g id="Vector">
<use xlink:href="#path0_fill" transform="translate(-10682.6 1960.78)" fill="#03558D"/>
<mask id="mask0_outline_out">
<rect id="mask0_outline_inv" fill="white" x="-1" y="-1" width="43" height="28" transform="translate(-10682.6 1960.78)"/>
<use xlink:href="#path0_fill" fill="black" transform="translate(-10682.6 1960.78)"/>
</mask>
<g mask="url(#mask0_outline_out)">
<use xlink:href="#path1_stroke_2x" transform="translate(-10682.6 1960.78)" fill="#03558D"/>
</g>
</g>
</g>
<g id="Group">
<g id="Vector">
<use xlink:href="#path2_fill" transform="translate(-10698 1920)" fill="#03558D"/>
<mask id="mask1_outline_out">
<rect id="mask1_outline_inv" fill="white" x="-1" y="-1" width="74" height="104" transform="translate(-10698 1920)"/>
<use xlink:href="#path2_fill" fill="black" transform="translate(-10698 1920)"/>
</mask>
<g mask="url(#mask1_outline_out)">
<use xlink:href="#path3_stroke_2x" transform="translate(-10698 1920)" fill="#03558D"/>
</g>
</g>
</g>
<g id="Group">
<g id="Vector">
<use xlink:href="#path4_fill" transform="translate(-10671.6 2007.38)" fill="#03558D"/>
<mask id="mask2_outline_out">
<rect id="mask2_outline_inv" fill="white" x="-1" y="-1" width="21" height="3" transform="translate(-10671.6 2007.38)"/>
<use xlink:href="#path4_fill" fill="black" transform="translate(-10671.6 2007.38)"/>
</mask>
<g mask="url(#mask2_outline_out)">
<use xlink:href="#path5_stroke_2x" transform="translate(-10671.6 2007.38)" fill="#03558D"/>
</g>
</g>
</g>
<g id="Group">
<g id="Vector">
<use xlink:href="#path6_fill" transform="translate(-10680.4 1998.63)" fill="#03558D"/>
<mask id="mask3_outline_out">
<rect id="mask3_outline_inv" fill="white" x="-1" y="-1" width="39" height="3" transform="translate(-10680.4 1998.63)"/>
<use xlink:href="#path6_fill" fill="black" transform="translate(-10680.4 1998.63)"/>
</mask>
<g mask="url(#mask3_outline_out)">
<use xlink:href="#path7_stroke_2x" transform="translate(-10680.4 1998.63)" fill="#03558D"/>
</g>
</g>
</g>
</g>
</g>
<defs>
<path id="path0_fill" d="M -6.30131e-07 26.2578L 10.6544 8.62289L 16.0023 17.4711L 26.0786 1.25012e-06L 41.2136 26.2578L -6.30131e-07 26.2578ZM 13.5658 24.7626L 38.612 24.7626L 26.0786 3.03132L 13.5658 24.7626ZM 2.68426 24.7626L 11.8314 24.7626L 15.1557 18.9663L 10.6751 11.5518L 2.68426 24.7626Z"/>
<path id="path1_stroke_2x" d="M -6.30131e-07 26.2578L -0.256775 26.1027L -0.531752 26.5578L -6.30131e-07 26.5578L -6.30131e-07 26.2578ZM 10.6544 8.62289L 10.9112 8.46771L 10.6544 8.04283L 10.3977 8.46776L 10.6544 8.62289ZM 16.0023 17.4711L 15.7455 17.6263L 16.0083 18.0611L 16.2622 17.621L 16.0023 17.4711ZM 26.0786 1.25012e-06L 26.3385 -0.149814L 26.0787 -0.600607L 25.8187 -0.14988L 26.0786 1.25012e-06ZM 41.2136 26.2578L 41.2136 26.5578L 41.7328 26.5578L 41.4736 26.108L 41.2136 26.2578ZM 13.5658 24.7626L 13.3058 24.613L 13.0469 25.0626L 13.5658 25.0626L 13.5658 24.7626ZM 38.612 24.7626L 38.612 25.0626L 39.1313 25.0626L 38.8719 24.6128L 38.612 24.7626ZM 26.0786 3.03132L 26.3385 2.88144L 26.0784 2.43048L 25.8186 2.88163L 26.0786 3.03132ZM 2.68426 24.7626L 2.42756 24.6074L 2.15218 25.0626L 2.68426 25.0626L 2.68426 24.7626ZM 11.8314 24.7626L 11.8314 25.0626L 12.0052 25.0626L 12.0916 24.9119L 11.8314 24.7626ZM 15.1557 18.9663L 15.416 19.1155L 15.5038 18.9623L 15.4125 18.8111L 15.1557 18.9663ZM 10.6751 11.5518L 10.9318 11.3966L 10.6752 10.972L 10.4184 11.3965L 10.6751 11.5518ZM 0.256774 26.413L 10.9112 8.77803L 10.3977 8.46776L -0.256775 26.1027L 0.256774 26.413ZM 10.3977 8.77807L 15.7455 17.6263L 16.259 17.3159L 10.9112 8.46771L 10.3977 8.77807ZM 16.2622 17.621L 26.3385 0.149882L 25.8187 -0.14988L 15.7424 17.3212L 16.2622 17.621ZM 25.8187 0.149816L 40.9537 26.4076L 41.4736 26.108L 26.3385 -0.149814L 25.8187 0.149816ZM 41.2136 25.9578L -6.30131e-07 25.9578L -6.30131e-07 26.5578L 41.2136 26.5578L 41.2136 25.9578ZM 13.5658 25.0626L 38.612 25.0626L 38.612 24.4626L 13.5658 24.4626L 13.5658 25.0626ZM 38.8719 24.6128L 26.3385 2.88144L 25.8187 3.18121L 38.3521 24.9125L 38.8719 24.6128ZM 25.8186 2.88163L 13.3058 24.613L 13.8258 24.9123L 26.3386 3.18102L 25.8186 2.88163ZM 2.68426 25.0626L 11.8314 25.0626L 11.8314 24.4626L 2.68426 24.4626L 2.68426 25.0626ZM 12.0916 24.9119L 15.416 19.1155L 14.8955 18.817L 11.5711 24.6134L 12.0916 24.9119ZM 15.4125 18.8111L 10.9318 11.3966L 10.4183 11.707L 14.899 19.1214L 15.4125 18.8111ZM 10.4184 11.3965L 2.42756 24.6074L 2.94095 24.9179L 10.9318 11.7071L 10.4184 11.3965Z"/>
<path id="path2_fill" d="M 0 102L 0 17.4711L 8.81675 17.4711L 8.81675 13.1084L 13.2148 13.1084L 13.2148 0L 14.7221 0L 14.7221 13.1084L 19.1202 13.1084L 19.1202 17.4711L 52.8592 17.4711L 52.8592 13.1084L 57.2572 13.1084L 57.2572 0L 58.7646 0L 58.7646 13.1084L 63.1832 13.1084L 63.1832 17.4711L 72 17.4711L 72 102L 0 102ZM 1.50731 100.505L 70.472 100.505L 70.472 18.9867L 63.1832 18.9867L 63.1832 23.3494L 52.8592 23.3494L 52.8592 18.9867L 19.1408 18.9867L 19.1408 23.3494L 8.81675 23.3494L 8.81675 18.9867L 1.50731 18.9867L 1.50731 100.505ZM 54.3665 21.8542L 61.6553 21.8542L 61.6553 14.6036L 54.3665 14.6036L 54.3665 21.8542ZM 10.3241 21.8542L 17.6128 21.8542L 17.6128 14.6036L 10.3241 14.6036L 10.3241 21.8542Z"/>
<path id="path3_stroke_2x" d="M 0 102L -0.3 102L -0.3 102.3L 0 102.3L 0 102ZM 0 17.4711L 0 17.1711L -0.3 17.1711L -0.3 17.4711L 0 17.4711ZM 8.81675 17.4711L 8.81675 17.7711L 9.11675 17.7711L 9.11675 17.4711L 8.81675 17.4711ZM 8.81675 13.1084L 8.81675 12.8084L 8.51675 12.8084L 8.51675 13.1084L 8.81675 13.1084ZM 13.2148 13.1084L 13.2148 13.4084L 13.5148 13.4084L 13.5148 13.1084L 13.2148 13.1084ZM 13.2148 0L 13.2148 -0.3L 12.9148 -0.3L 12.9148 0L 13.2148 0ZM 14.7221 0L 15.0221 0L 15.0221 -0.3L 14.7221 -0.3L 14.7221 0ZM 14.7221 13.1084L 14.4221 13.1084L 14.4221 13.4084L 14.7221 13.4084L 14.7221 13.1084ZM 19.1202 13.1084L 19.4202 13.1084L 19.4202 12.8084L 19.1202 12.8084L 19.1202 13.1084ZM 19.1202 17.4711L 18.8202 17.4711L 18.8202 17.7711L 19.1202 17.7711L 19.1202 17.4711ZM 52.8592 17.4711L 52.8592 17.7711L 53.1592 17.7711L 53.1592 17.4711L 52.8592 17.4711ZM 52.8592 13.1084L 52.8592 12.8084L 52.5592 12.8084L 52.5592 13.1084L 52.8592 13.1084ZM 57.2572 13.1084L 57.2572 13.4084L 57.5572 13.4084L 57.5572 13.1084L 57.2572 13.1084ZM 57.2572 0L 57.2572 -0.3L 56.9572 -0.3L 56.9572 0L 57.2572 0ZM 58.7646 0L 59.0646 0L 59.0646 -0.3L 58.7646 -0.3L 58.7646 0ZM 58.7646 13.1084L 58.4646 13.1084L 58.4646 13.4084L 58.7646 13.4084L 58.7646 13.1084ZM 63.1832 13.1084L 63.4832 13.1084L 63.4832 12.8084L 63.1832 12.8084L 63.1832 13.1084ZM 63.1832 17.4711L 62.8832 17.4711L 62.8832 17.7711L 63.1832 17.7711L 63.1832 17.4711ZM 72 17.4711L 72.3 17.4711L 72.3 17.1711L 72 17.1711L 72 17.4711ZM 72 102L 72 102.3L 72.3 102.3L 72.3 102L 72 102ZM 1.50731 100.505L 1.20731 100.505L 1.20731 100.805L 1.50731 100.805L 1.50731 100.505ZM 70.472 100.505L 70.472 100.805L 70.772 100.805L 70.772 100.505L 70.472 100.505ZM 70.472 18.9867L 70.772 18.9867L 70.772 18.6867L 70.472 18.6867L 70.472 18.9867ZM 63.1832 18.9867L 63.1832 18.6867L 62.8832 18.6867L 62.8832 18.9867L 63.1832 18.9867ZM 63.1832 23.3494L 63.1832 23.6494L 63.4832 23.6494L 63.4832 23.3494L 63.1832 23.3494ZM 52.8592 23.3494L 52.5592 23.3494L 52.5592 23.6494L 52.8592 23.6494L 52.8592 23.3494ZM 52.8592 18.9867L 53.1592 18.9867L 53.1592 18.6867L 52.8592 18.6867L 52.8592 18.9867ZM 19.1408 18.9867L 19.1408 18.6867L 18.8408 18.6867L 18.8408 18.9867L 19.1408 18.9867ZM 19.1408 23.3494L 19.1408 23.6494L 19.4408 23.6494L 19.4408 23.3494L 19.1408 23.3494ZM 8.81675 23.3494L 8.51675 23.3494L 8.51675 23.6494L 8.81675 23.6494L 8.81675 23.3494ZM 8.81675 18.9867L 9.11675 18.9867L 9.11675 18.6867L 8.81675 18.6867L 8.81675 18.9867ZM 1.50731 18.9867L 1.50731 18.6867L 1.20731 18.6867L 1.20731 18.9867L 1.50731 18.9867ZM 54.3665 21.8542L 54.0665 21.8542L 54.0665 22.1542L 54.3665 22.1542L 54.3665 21.8542ZM 61.6553 21.8542L 61.6553 22.1542L 61.9553 22.1542L 61.9553 21.8542L 61.6553 21.8542ZM 61.6553 14.6036L 61.9553 14.6036L 61.9553 14.3036L 61.6553 14.3036L 61.6553 14.6036ZM 54.3665 14.6036L 54.3665 14.3036L 54.0665 14.3036L 54.0665 14.6036L 54.3665 14.6036ZM 10.3241 21.8542L 10.0241 21.8542L 10.0241 22.1542L 10.3241 22.1542L 10.3241 21.8542ZM 17.6128 21.8542L 17.6128 22.1542L 17.9128 22.1542L 17.9128 21.8542L 17.6128 21.8542ZM 17.6128 14.6036L 17.9128 14.6036L 17.9128 14.3036L 17.6128 14.3036L 17.6128 14.6036ZM 10.3241 14.6036L 10.3241 14.3036L 10.0241 14.3036L 10.0241 14.6036L 10.3241 14.6036ZM 0.3 102L 0.3 17.4711L -0.3 17.4711L -0.3 102L 0.3 102ZM 0 17.7711L 8.81675 17.7711L 8.81675 17.1711L 0 17.1711L 0 17.7711ZM 9.11675 17.4711L 9.11675 13.1084L 8.51675 13.1084L 8.51675 17.4711L 9.11675 17.4711ZM 8.81675 13.4084L 13.2148 13.4084L 13.2148 12.8084L 8.81675 12.8084L 8.81675 13.4084ZM 13.5148 13.1084L 13.5148 0L 12.9148 0L 12.9148 13.1084L 13.5148 13.1084ZM 13.2148 0.3L 14.7221 0.3L 14.7221 -0.3L 13.2148 -0.3L 13.2148 0.3ZM 14.4221 0L 14.4221 13.1084L 15.0221 13.1084L 15.0221 0L 14.4221 0ZM 14.7221 13.4084L 19.1202 13.4084L 19.1202 12.8084L 14.7221 12.8084L 14.7221 13.4084ZM 18.8202 13.1084L 18.8202 17.4711L 19.4202 17.4711L 19.4202 13.1084L 18.8202 13.1084ZM 19.1202 17.7711L 52.8592 17.7711L 52.8592 17.1711L 19.1202 17.1711L 19.1202 17.7711ZM 53.1592 17.4711L 53.1592 13.1084L 52.5592 13.1084L 52.5592 17.4711L 53.1592 17.4711ZM 52.8592 13.4084L 57.2572 13.4084L 57.2572 12.8084L 52.8592 12.8084L 52.8592 13.4084ZM 57.5572 13.1084L 57.5572 0L 56.9572 0L 56.9572 13.1084L 57.5572 13.1084ZM 57.2572 0.3L 58.7646 0.3L 58.7646 -0.3L 57.2572 -0.3L 57.2572 0.3ZM 58.4646 0L 58.4646 13.1084L 59.0646 13.1084L 59.0646 0L 58.4646 0ZM 58.7646 13.4084L 63.1832 13.4084L 63.1832 12.8084L 58.7646 12.8084L 58.7646 13.4084ZM 62.8832 13.1084L 62.8832 17.4711L 63.4832 17.4711L 63.4832 13.1084L 62.8832 13.1084ZM 63.1832 17.7711L 72 17.7711L 72 17.1711L 63.1832 17.1711L 63.1832 17.7711ZM 71.7 17.4711L 71.7 102L 72.3 102L 72.3 17.4711L 71.7 17.4711ZM 72 101.7L 0 101.7L 0 102.3L 72 102.3L 72 101.7ZM 1.50731 100.805L 70.472 100.805L 70.472 100.205L 1.50731 100.205L 1.50731 100.805ZM 70.772 100.505L 70.772 18.9867L 70.172 18.9867L 70.172 100.505L 70.772 100.505ZM 70.472 18.6867L 63.1832 18.6867L 63.1832 19.2867L 70.472 19.2867L 70.472 18.6867ZM 62.8832 18.9867L 62.8832 23.3494L 63.4832 23.3494L 63.4832 18.9867L 62.8832 18.9867ZM 63.1832 23.0494L 52.8592 23.0494L 52.8592 23.6494L 63.1832 23.6494L 63.1832 23.0494ZM 53.1592 23.3494L 53.1592 18.9867L 52.5592 18.9867L 52.5592 23.3494L 53.1592 23.3494ZM 52.8592 18.6867L 19.1408 18.6867L 19.1408 19.2867L 52.8592 19.2867L 52.8592 18.6867ZM 18.8408 18.9867L 18.8408 23.3494L 19.4408 23.3494L 19.4408 18.9867L 18.8408 18.9867ZM 19.1408 23.0494L 8.81675 23.0494L 8.81675 23.6494L 19.1408 23.6494L 19.1408 23.0494ZM 9.11675 23.3494L 9.11675 18.9867L 8.51675 18.9867L 8.51675 23.3494L 9.11675 23.3494ZM 8.81675 18.6867L 1.50731 18.6867L 1.50731 19.2867L 8.81675 19.2867L 8.81675 18.6867ZM 1.20731 18.9867L 1.20731 100.505L 1.80731 100.505L 1.80731 18.9867L 1.20731 18.9867ZM 54.3665 22.1542L 61.6553 22.1542L 61.6553 21.5542L 54.3665 21.5542L 54.3665 22.1542ZM 61.9553 21.8542L 61.9553 14.6036L 61.3553 14.6036L 61.3553 21.8542L 61.9553 21.8542ZM 61.6553 14.3036L 54.3665 14.3036L 54.3665 14.9036L 61.6553 14.9036L 61.6553 14.3036ZM 54.0665 14.6036L 54.0665 21.8542L 54.6665 21.8542L 54.6665 14.6036L 54.0665 14.6036ZM 10.3241 22.1542L 17.6128 22.1542L 17.6128 21.5542L 10.3241 21.5542L 10.3241 22.1542ZM 17.9128 21.8542L 17.9128 14.6036L 17.3128 14.6036L 17.3128 21.8542L 17.9128 21.8542ZM 17.6128 14.3036L 10.3241 14.3036L 10.3241 14.9036L 17.6128 14.9036L 17.6128 14.3036ZM 10.0241 14.6036L 10.0241 21.8542L 10.6241 21.8542L 10.6241 14.6036L 10.0241 14.6036Z"/>
<path id="path4_fill" d="M 0.76398 1.51566C 0.351017 1.51566 2.93427e-15 1.18795 2.93427e-15 0.757829C 2.93427e-15 0.327708 0.330369 1.25012e-06 0.76398 1.25012e-06L 18.3768 1.25012e-06C 18.7898 1.25012e-06 19.1408 0.327708 19.1408 0.757829C 19.1408 1.18795 18.7898 1.51566 18.3768 1.51566L 0.76398 1.51566Z"/>
<path id="path5_stroke_2x" d="M 0.76398 1.21566C 0.509082 1.21566 0.3 1.01474 0.3 0.757829L -0.3 0.757829C -0.3 1.36115 0.192953 1.81566 0.76398 1.81566L 0.76398 1.21566ZM 0.3 0.757829C 0.3 0.495677 0.493763 0.300001 0.76398 0.300001L 0.76398 -0.299999C 0.166976 -0.299999 -0.3 0.15974 -0.3 0.757829L 0.3 0.757829ZM 0.76398 0.300001L 18.3768 0.300001L 18.3768 -0.299999L 0.76398 -0.299999L 0.76398 0.300001ZM 18.3768 0.300001C 18.6317 0.300001 18.8408 0.500916 18.8408 0.757829L 19.4408 0.757829C 19.4408 0.1545 18.9479 -0.299999 18.3768 -0.299999L 18.3768 0.300001ZM 18.8408 0.757829C 18.8408 1.01474 18.6317 1.21566 18.3768 1.21566L 18.3768 1.81566C 18.9479 1.81566 19.4408 1.36115 19.4408 0.757829L 18.8408 0.757829ZM 18.3768 1.21566L 0.76398 1.21566L 0.76398 1.81566L 18.3768 1.81566L 18.3768 1.21566Z"/>
<path id="path6_fill" d="M 0.763981 1.51566C 0.351018 1.51566 6.30131e-07 1.18795 6.30131e-07 0.757833C 6.30131e-07 0.348194 0.33037 -1.25012e-06 0.763981 -1.25012e-06L 36.0103 -1.25012e-06C 36.4233 -1.25012e-06 36.7743 0.327712 36.7743 0.757833C 36.7743 1.16747 36.4439 1.51566 36.0103 1.51566L 0.763981 1.51566Z"/>
<path id="path7_stroke_2x" d="M 0.763981 1.21566C 0.50908 1.21566 0.300001 1.01475 0.300001 0.757833L -0.299999 0.757833C -0.299999 1.36116 0.192957 1.81566 0.763981 1.81566L 0.763981 1.21566ZM 0.300001 0.757833C 0.300001 0.510869 0.49905 0.299999 0.763981 0.299999L 0.763981 -0.300001C 0.16169 -0.300001 -0.299999 0.185519 -0.299999 0.757833L 0.300001 0.757833ZM 0.763981 0.299999L 36.0103 0.299999L 36.0103 -0.300001L 0.763981 -0.300001L 0.763981 0.299999ZM 36.0103 0.299999C 36.2652 0.299999 36.4743 0.500915 36.4743 0.757833L 37.0743 0.757833C 37.0743 0.154509 36.5814 -0.300001 36.0103 -0.300001L 36.0103 0.299999ZM 36.4743 0.757833C 36.4743 1.00479 36.2753 1.21566 36.0103 1.21566L 36.0103 1.81566C 36.6126 1.81566 37.0743 1.33015 37.0743 0.757833L 36.4743 0.757833ZM 36.0103 1.21566L 0.763981 1.21566L 0.763981 1.81566L 36.0103 1.81566L 36.0103 1.21566Z"/>
</defs>
</svg>
