<svg width="89" height="101" viewBox="0 0 89 101" version="1.1" xmlns="http://www.w3.org/2000/svg" xmlns:xlink="http://www.w3.org/1999/xlink">
<title>Group</title>
<desc>Created using Figma</desc>
<g id="Canvas" transform="translate(10427 -1920)">
<g id="Group">
<g id="Group">
<g id="Vector">
<use xlink:href="#path0_fill" transform="translate(-10383.5 1956.95)" fill="#03558D"/>
</g>
</g>
<g id="Group">
<g id="Vector">
<use xlink:href="#path1_fill" transform="translate(-10402.2 1969.27)" fill="#03558D"/>
</g>
</g>
<g id="Group">
<g id="Vector">
<use xlink:href="#path2_fill" transform="translate(-10427 1920)" fill="#03558D"/>
</g>
</g>
</g>
</g>
<defs>
<path id="path0_fill" d="M 1.03488 14.3699C 0.455349 14.3699 0 13.9183 0 13.3435L 0 1.02642C 0 0.451626 0.455349 0 1.03488 0L 13.4535 0C 14.033 0 14.4884 0.451626 14.4884 1.02642L 14.4884 13.3435C 14.4884 13.9183 14.033 14.3699 13.4535 14.3699L 1.03488 14.3699ZM 2.06977 12.3171L 12.4186 12.3171L 12.4186 2.05285L 2.06977 2.05285L 2.06977 12.3171Z"/>
<path id="path1_fill" d="M 1.03488 2.05285C 0.455349 2.05285 0 1.60122 0 1.02642C 0 0.451626 0.455349 0 1.03488 0L 7.24419 0C 7.82372 0 8.27907 0.451626 8.27907 1.02642C 8.27907 1.60122 7.82372 2.05285 7.24419 2.05285L 1.03488 2.05285Z"/>
<path id="path2_fill" d="M 63.9558 101C 63.6247 101 63.3142 100.856 63.1279 100.589L 43.2581 74.313L 43.2581 99.9736C 43.2581 100.548 42.8028 101 42.2233 101C 41.6437 101 41.1884 100.548 41.1884 99.9736L 41.1884 74.313L 21.3186 100.589C 21.1116 100.856 20.8219 101 20.4907 101C 20.263 101 20.056 100.938 19.8698 100.795C 19.6421 100.63 19.4972 100.384 19.4558 100.117C 19.4144 99.8504 19.4765 99.5835 19.6421 99.3577L 37.0281 76.3659L 32.8886 76.3659C 28.894 76.3659 25.6444 73.1429 25.6444 69.1809L 25.6444 63.6382L 18.7107 63.6382C 15.2335 63.6382 12.4186 60.8463 12.4186 57.3976L 12.4186 50.7258L 0.310465 38.6961C 0.103488 38.5114 0 38.2445 0 37.9776L 0 31.8191C 0 31.2443 0.455349 30.7927 1.03488 30.7927L 12.2116 30.7927L 12.6256 29.2736C 13.2051 27.1181 14.923 25.4142 17.0963 24.8394L 18.6279 24.4289L 18.6279 18.4756C 18.6279 15.0884 21.4221 12.3171 24.8372 12.3171L 33.1163 12.3171C 36.5314 12.3171 39.3256 15.0884 39.3256 18.4756L 39.3256 24.6341L 49.6744 24.6341L 49.6744 12.3171C 49.6744 8.92988 52.4686 6.15854 55.8837 6.15854L 68.116 6.15854L 68.53 4.65996C 69.3165 1.90915 71.8416 0 74.7186 0L 82.5837 0C 86.123 0 89 2.85346 89 6.36382L 89 8.0061C 89 11.5165 86.123 14.3699 82.5837 14.3699L 74.7186 14.3699C 71.8623 14.3699 69.3165 12.4608 68.5507 9.70996L 68.1367 8.21138L 55.8837 8.21138C 53.607 8.21138 51.7442 10.0589 51.7442 12.3171L 51.7442 24.6341L 64.08 24.6341C 67.5572 24.6341 70.3721 27.426 70.3721 30.8748L 70.3721 36.0685L 87.3856 24.8189C 87.5719 24.6957 87.7374 24.6341 87.9444 24.6341C 88.2756 24.6341 89 24.901 89 25.6606L 89 62.6118C 89 63.3919 88.2756 63.6382 87.9444 63.6382C 87.7581 63.6382 87.5512 63.5766 87.3856 63.4535L 70.3721 52.2039L 70.3721 57.3976C 70.3721 60.8463 67.5572 63.6382 64.08 63.6382L 58.7814 63.6382L 58.7814 68.7703C 58.7814 72.8965 55.4698 76.3659 51.5372 76.3659L 47.3977 76.3659L 64.7837 99.3577C 64.9493 99.5835 65.0114 99.8504 64.9907 100.117C 64.9493 100.384 64.8044 100.63 64.5767 100.795C 64.3905 100.938 64.1835 101 63.9558 101ZM 27.7349 69.1809C 27.7349 72.0138 30.053 74.313 32.9093 74.313L 51.5372 74.313C 54.29 74.313 56.7116 71.7264 56.7116 68.7703L 56.7116 63.6382L 27.7349 63.6382L 27.7349 69.1809ZM 18.7107 26.687C 16.3926 26.687 14.4884 28.5551 14.4884 30.8748L 14.4884 57.3976C 14.4884 59.6967 16.3719 61.5854 18.7107 61.5854L 64.08 61.5854C 66.3981 61.5854 68.3023 59.7173 68.3023 57.3976L 68.3023 30.8748C 68.3023 28.5756 66.4188 26.687 64.08 26.687L 18.7107 26.687ZM 70.3721 38.5319L 70.3721 49.7404L 86.9302 60.6821L 86.9302 27.5697L 70.3721 38.5319ZM 2.06977 37.5465L 12.4186 47.8108L 12.4186 32.8455L 2.06977 32.8455L 2.06977 37.5465ZM 24.8372 14.3699C 22.5605 14.3699 20.6977 16.2175 20.6977 18.4756L 20.6977 24.6341L 37.2558 24.6341L 37.2558 18.4756C 37.2558 16.2175 35.393 14.3699 33.1163 14.3699L 24.8372 14.3699ZM 74.7186 2.05285C 72.3177 2.05285 70.3721 3.98252 70.3721 6.36382L 70.3721 8.0061C 70.3721 10.3874 72.3177 12.3171 74.7186 12.3171L 82.5837 12.3171C 84.9847 12.3171 86.9302 10.3874 86.9302 8.0061L 86.9302 6.36382C 86.9302 3.98252 84.9847 2.05285 82.5837 2.05285L 74.7186 2.05285Z"/>
</defs>
</svg>
