<svg width="146" height="104" viewBox="0 0 146 104" version="1.1" xmlns="http://www.w3.org/2000/svg" xmlns:xlink="http://www.w3.org/1999/xlink">
<title>Vector</title>
<desc>Created using Figma</desc>
<g id="Canvas" transform="translate(11026 -1918)">
<g id="Vector">
<use xlink:href="#path0_fill" transform="translate(-11026 1918)" fill="#03558D"/>
<use xlink:href="#path1_fill" transform="translate(-11026 1918)" fill="#03558D"/>
<use xlink:href="#path2_fill" transform="translate(-11026 1918)" fill="#03558D"/>
<use xlink:href="#path3_fill" transform="translate(-11026 1918)" fill="#03558D"/>
<use xlink:href="#path4_fill" transform="translate(-11026 1918)" fill="#03558D"/>
<use xlink:href="#path5_fill" transform="translate(-11026 1918)" fill="#03558D"/>
</g>
</g>
<defs>
<path id="path0_fill" d="M 39.5706 104C 38.9333 104 38.4119 103.478 38.4119 102.84C 38.4119 102.202 38.9333 101.68 39.5706 101.68L 135.571 101.68C 140.062 101.68 143.712 98.0257 143.712 93.5304L 143.712 89.1221L 89.0194 89.1221L 89.0194 96.0245C 89.0194 96.6626 88.498 97.1846 87.8607 97.1846L 58.1393 97.1846C 57.502 97.1846 56.9806 96.6626 56.9806 96.0245L 56.9806 89.1221L 2.31746 89.1221L 2.31746 93.5304C 2.31746 98.0257 5.96746 101.68 10.4575 101.68L 29.6635 101.68C 30.3008 101.68 30.8222 102.202 30.8222 102.84C 30.8222 103.478 30.3008 104 29.6635 104L 10.4575 104C 4.69286 104 0 99.3017 0 93.5304L 0 87.9621C 0 87.324 0.521429 86.802 1.15873 86.802L 9.90714 86.802L 9.90714 10.4696C 9.90714 4.69827 14.6 0 20.3647 0L 125.635 0C 131.4 0 136.093 4.69827 136.093 10.4696L 136.093 86.802L 144.841 86.802C 145.479 86.802 146 87.324 146 87.9621L 146 93.5304C 146 99.3017 141.307 104 135.542 104L 39.5706 104ZM 59.298 94.8645L 86.702 94.8645L 86.702 89.1221L 59.298 89.1221L 59.298 94.8645ZM 12.2246 86.802L 133.746 86.802L 133.746 17.198L 123.752 17.198C 123.115 17.198 122.594 16.676 122.594 16.0379C 122.594 15.3999 123.115 14.8779 123.752 14.8779L 133.746 14.8779L 133.746 10.4696C 133.746 5.97434 130.096 2.34914 125.635 2.34914L 20.3647 2.34914C 15.8746 2.34914 12.2246 6.00335 12.2246 10.4696L 12.2246 14.8779L 113.266 14.8779C 113.903 14.8779 114.425 15.3999 114.425 16.0379C 114.425 16.676 113.903 17.198 113.266 17.198L 12.2246 17.198L 12.2246 86.802Z"/>
<path id="path1_fill" d="M 68.0464 9.7735C 67.4091 9.7735 66.8877 9.25147 66.8877 8.61344C 66.8877 7.9754 67.4091 7.45337 68.0464 7.45337L 77.9536 7.45337C 78.5909 7.45337 79.1123 7.9754 79.1123 8.61344C 79.1123 9.25147 78.5909 9.7735 77.9536 9.7735L 68.0464 9.7735Z"/>
<path id="path2_fill" d="M 48.2318 78.7396C 47.7104 78.7396 47.2759 78.4205 47.131 77.9275L 42.4382 62.6436L 39.2806 62.6436C 36.0652 62.6436 33.458 60.0335 33.458 56.8143L 33.458 46.2867C 33.458 43.0675 36.0652 40.4574 39.2806 40.4574L 53.0116 40.4574L 80.5314 30.3938L 80.5314 26.1305C 80.5314 25.4925 81.0529 24.9705 81.6902 24.9705L 92.8429 24.9705C 93.1616 24.9705 93.4513 25.0865 93.654 25.3185C 93.8858 25.5505 94.0017 25.8405 94.0017 26.1305L 94.0017 76.9705C 94.0017 77.6085 93.4802 78.1305 92.8429 78.1305L 81.6902 78.1305C 81.0529 78.1305 80.5314 77.6085 80.5314 76.9705L 80.5314 72.7072L 53.1274 62.6726L 53.1274 77.5795C 53.1274 78.2175 52.606 78.7396 51.9687 78.7396L 48.2318 78.7396ZM 82.8199 75.7814L 91.6263 75.7814L 91.6263 27.2906L 82.8199 27.2906L 82.8199 75.7814ZM 48.5215 74.5343L 50.781 74.1863L 50.781 62.6146L 44.8425 62.6146L 48.5215 74.5343ZM 54.3441 42.4295L 54.3441 60.6425L 80.5024 70.2131L 80.5024 32.8589L 54.3441 42.4295ZM 39.2517 42.7775C 37.3398 42.7775 35.7755 44.3436 35.7755 46.2577L 35.7755 56.7853C 35.7755 58.6994 37.3398 60.2655 39.2517 60.2655L 52.0267 60.2655L 52.0267 42.7485L 39.2517 42.7485L 39.2517 42.7775Z"/>
<path id="path3_fill" d="M 103.359 52.6961C 102.722 52.6961 102.2 52.1741 102.2 51.536C 102.2 50.898 102.722 50.376 103.359 50.376L 112.02 50.376C 112.658 50.376 113.179 50.898 113.179 51.536C 113.179 52.1741 112.658 52.6961 112.02 52.6961L 103.359 52.6961Z"/>
<path id="path4_fill" d="M 103.359 37.8182C 103.012 37.8182 102.693 37.6732 102.461 37.4121C 102.259 37.1801 102.172 36.8611 102.201 36.5711C 102.23 36.2521 102.375 35.9911 102.606 35.7881L 110.051 29.5817C 110.312 29.3497 110.602 29.3207 110.804 29.3207C 111.152 29.3207 111.471 29.4657 111.702 29.7267C 111.905 29.9587 111.992 30.2777 111.963 30.5678C 111.934 30.8868 111.789 31.1478 111.557 31.3508L 104.113 37.5572C 103.823 37.7892 103.533 37.8182 103.359 37.8182Z"/>
<path id="path5_fill" d="M 110.775 73.7802C 110.572 73.7802 110.312 73.7222 110.022 73.5192L 102.577 67.3128C 102.345 67.1098 102.2 66.8198 102.171 66.5298C 102.142 66.2108 102.229 65.9207 102.432 65.6887C 102.664 65.4277 102.983 65.2827 103.33 65.2827C 103.533 65.2827 103.794 65.3407 104.083 65.5437L 111.528 71.7501C 111.76 71.9531 111.905 72.2431 111.934 72.5331C 111.963 72.8522 111.876 73.1422 111.673 73.3742C 111.441 73.6352 111.123 73.7802 110.775 73.7802Z"/>
</defs>
</svg>
