<svg id="Layer_1" data-name="Layer 1" xmlns="http://www.w3.org/2000/svg" viewBox="0 0 335.99 235.19"><defs><style>.cls-1{fill:#80d8dd;}.cls-2{fill:#00b1ba;}.cls-3{opacity:0.15;}.cls-4{fill:#122c3d;}.cls-5{fill:#feffff;}.cls-6{fill:#2e2f2f;fill-rule:evenodd;}.cls-7{fill:#d6eaf5;}.cls-8{fill:#99c451;}.cls-9{fill:#fff;}.cls-10{fill:#f1f3f8;}.cls-11{fill:#c9ccd1;}.cls-12{fill:#2a4251;}.cls-13{fill:#82b936;}.cls-14{fill:#154d61;}</style></defs><title>digital marketing</title><rect class="cls-1" width="335.99" height="235.19"/><polygon class="cls-2" points="98.43 110.42 163.76 0.53 335.99 0.53 335.99 235.19 246.93 235.19 127.59 183.46 98.43 110.42"/><g class="cls-3"><path class="cls-4" d="M166,135.16a1.69,1.69,0,0,0-2.14-1l-29.49,10a1.69,1.69,0,1,0,1.09,3.19l29.49-10A1.69,1.69,0,0,0,166,135.16Z"/><path class="cls-4" d="M144.12,101a1.68,1.68,0,0,0-2.26.76l-13.74,28a1.69,1.69,0,1,0,3,1.49l13.74-28A1.68,1.68,0,0,0,144.12,101Z"/><path class="cls-4" d="M168.8,173.32l-28-13.74a1.69,1.69,0,1,0-1.49,3l28,13.74a1.69,1.69,0,0,0,1.49-3Z"/><path class="cls-4" d="M283,90a3.41,3.41,0,0,0-3.42-3.4l-30,.1a3.39,3.39,0,0,0-3.39,3.42l.18,59a3.41,3.41,0,0,0,3.42,3.39l30-.09a3.41,3.41,0,0,0,3.4-3.42Z"/><path class="cls-4" d="M197.19,68.36l1.24,1.21a10,10,0,0,0-1.53,3.85l-1.73,0,.05,3.65,1.73,0a9.87,9.87,0,0,0,1.65,3.81l-1.21,1.24L200,84.67l1.21-1.25A10,10,0,0,0,205.07,85l0,1.73,3.65-.05,0-1.73a10,10,0,0,0,3.81-1.64l1.24,1.2,2.54-2.61-1.24-1.21a10,10,0,0,0,1.53-3.86l1.73,0-.05-3.65-1.73,0a9.87,9.87,0,0,0-1.65-3.81l1.21-1.24-2.62-2.55-1.2,1.25a9.87,9.87,0,0,0-3.86-1.53l0-1.73-3.64,0,0,1.73A10,10,0,0,0,201,67l-1.24-1.2Zm9.45-.63a7.38,7.38,0,1,1-7.27,7.48A7.38,7.38,0,0,1,206.64,67.73Z"/><path class="cls-4" d="M188.6,67l-.43,1.11,2.73,1,.42-1.1a6.91,6.91,0,0,0,2.4-.06l.48,1.08,2.67-1.19-.48-1.08A6.66,6.66,0,0,0,198,65.05l1.11.43,1-2.73-1.1-.43a7.11,7.11,0,0,0-.06-2.39l1.08-.48-1.19-2.67-1.08.48a6.66,6.66,0,0,0-1.74-1.65l.43-1.11-2.73-1-.43,1.11a6.62,6.62,0,0,0-2.39.06l-.48-1.08-2.68,1.18.48,1.08a6.83,6.83,0,0,0-1.65,1.74l-1.1-.43-1.05,2.73,1.1.43a6.85,6.85,0,0,0,.06,2.39l-1.08.48,1.19,2.67,1.08-.47A6.63,6.63,0,0,0,188.6,67Zm1.9-9.86a4.58,4.58,0,0,1,6,2.32,4.44,4.44,0,0,1,.39,1.79,4.57,4.57,0,0,1-8.74,1.92,4.26,4.26,0,0,1-.39-1.78A4.55,4.55,0,0,1,190.5,57.12Z"/><path class="cls-4" d="M262.27,39.71a1.53,1.53,0,0,0,1.17.54,3.06,3.06,0,0,0,1.3-.41l-2.63-2.63A1.76,1.76,0,0,0,262.27,39.71Z"/><path class="cls-4" d="M286.15,42.29,265.34,21.48H255.25L252,24.75l-2.5-2.5a.83.83,0,0,0-1.18,0l-.74.73a.84.84,0,0,0,0,1.19l2.5,2.5-3.27,3.27V40L267.63,60.8ZM256.69,31.34a3.34,3.34,0,0,1-4.73,0,3.31,3.31,0,0,1-.76-3.53l1.58,1.58a.85.85,0,0,0,1.18,0l.74-.74a.83.83,0,0,0,0-1.18l-1.6-1.6a3.34,3.34,0,0,1,3.59,5.47Zm7.68,15.4,2.1-2.11a3.15,3.15,0,0,0,1.66.8,2.35,2.35,0,0,0,1.66-.53l-3.11-3.12a12.49,12.49,0,0,1-1.66.92,5.63,5.63,0,0,1-1.68.46,3.89,3.89,0,0,1-1.62-.19,3.93,3.93,0,0,1-1.55-1,4.55,4.55,0,0,1-1-1.48,3.76,3.76,0,0,1-.3-1.62,5,5,0,0,1,.39-1.72,7.48,7.48,0,0,1,1.09-1.7l-1.13-1.13,1-1,1.15,1.16a5.15,5.15,0,0,1,3.23-1.38,4.5,4.5,0,0,1,3.09,1.22l-2.13,2.13a1.83,1.83,0,0,0-2.4-.18L266,39.1a15.37,15.37,0,0,1,1.81-1,5.23,5.23,0,0,1,1.7-.51,3.56,3.56,0,0,1,1.62.18,4.49,4.49,0,0,1,1.57,1.07,5,5,0,0,1,1.11,1.61,4.29,4.29,0,0,1,.32,1.76,4.7,4.7,0,0,1-.41,1.8,6.67,6.67,0,0,1-1.12,1.72l1.16,1.15-1,1-1.16-1.15a8.1,8.1,0,0,1-1.75,1.15,4.37,4.37,0,0,1-3.61.1A6.65,6.65,0,0,1,264.37,46.74Z"/><path class="cls-4" d="M271.3,42.45a2.21,2.21,0,0,0-.72-1.35,1.66,1.66,0,0,0-1.14-.55,3,3,0,0,0-1.51.51l2.85,2.85A2.06,2.06,0,0,0,271.3,42.45Z"/><path class="cls-4" d="M322.24,77.61h-2.3V74.77A7.92,7.92,0,0,0,312,66.85h-.23a7.94,7.94,0,0,0-7.93,7.92v2.84h-2.29a.52.52,0,0,0-.52.52v16a.52.52,0,0,0,.52.53h20.67a.53.53,0,0,0,.52-.53v-16A.53.53,0,0,0,322.24,77.61Zm-7.62,12.54.17.63H309l.17-.63.93-3.47a2.91,2.91,0,1,1,3.56,0Zm3.67-12.54H305.51V74.93a6.39,6.39,0,1,1,12.78,0Z"/><path class="cls-4" d="M229.41,101.77H202.54a.8.8,0,0,0-.78.79v17.89a.79.79,0,0,0,.78.78h13.62l9.8,6.28a.37.37,0,0,0,.19.09.43.43,0,0,0,0-.21l0-6.16h3.21a.78.78,0,0,0,.78-.78V102.56A.79.79,0,0,0,229.41,101.77Z"/><polygon class="cls-4" points="244.93 175.48 249.69 177.7 249.01 172.49 252.6 168.65 247.43 167.69 244.88 163.09 242.37 167.71 237.21 168.7 240.83 172.52 240.18 177.73 244.93 175.48"/><polygon class="cls-4" points="307.18 43.31 311.93 41.05 316.69 43.28 316.01 38.06 319.59 34.23 314.43 33.26 311.88 28.66 309.37 33.28 304.21 34.28 307.82 38.09 307.18 43.31"/><polygon class="cls-4" points="172.04 100.05 169.5 95.45 166.98 100.06 161.82 101.06 165.44 104.88 164.79 110.1 169.54 107.84 174.3 110.06 173.62 104.85 177.21 101.01 172.04 100.05"/><path class="cls-4" d="M314.58,171.37c-.16-.17-.32-.35-.49-.52l-8.16,9.66h13a18,18,0,0,0-4.38-9.13h0Z"/><path class="cls-4" d="M301.16,165.35a18.06,18.06,0,1,0,18.06,18.06H301.16Z"/><path class="cls-4" d="M310.17,167.79c-.43-.25-.87-.47-1.32-.68l-.27-.13q-.57-.25-1.17-.48l-.38-.14c-.39-.13-.77-.25-1.16-.35l-.41-.11a15.77,15.77,0,0,0-1.58-.32v13.14l8.17-9.68a20.06,20.06,0,0,0-1.83-1.22Z"/><path class="cls-4" d="M265.57,201.53H245.68a.76.76,0,0,0-.76.75V207a.69.69,0,0,0,0,.33v8.38a.76.76,0,0,0,.76.75h19.89a.75.75,0,0,0,.75-.75V202.28A.75.75,0,0,0,265.57,201.53Zm-.75,13.41H246.43v-7h18.39Zm0-8.54H246.43V203h18.39Z"/><path class="cls-4" d="M208.61,149.83a10.71,10.71,0,1,0-18.3,7.53l0,0h0a10.7,10.7,0,0,0,18.26-7.57Zm-19.9,0a9.19,9.19,0,0,1,15.13-7l-13,12.94A9.18,9.18,0,0,1,188.71,149.83Zm16.19-6a9.18,9.18,0,0,1-12.94,13Z"/><path class="cls-4" d="M212.78,40.26a10.71,10.71,0,0,0,10.7-10.7.76.76,0,0,0-1.51,0,9.21,9.21,0,1,1-.84-3.82h-5.28a.76.76,0,1,0,0,1.51h6.87a.76.76,0,0,0,.76-.75V19.62a.76.76,0,1,0-1.51,0v4.47a10.7,10.7,0,1,0-9.19,16.17Z"/><path class="cls-4" d="M317.85,130.74l4.18-1.33a.74.74,0,0,0,.52-.66.75.75,0,0,0-.41-.73l-19.89-10a.76.76,0,0,0-.87.14.75.75,0,0,0-.15.86l9.61,19.9a.75.75,0,0,0,.68.42h.05a.76.76,0,0,0,.67-.51l1.52-4.59,4.85,4.85a.79.79,0,0,0,1.07,0l2.75-2.75a.77.77,0,0,0,0-1.07Zm1.29,6.8L314,132.37a.74.74,0,0,0-.53-.22.55.55,0,0,0-.18,0,.74.74,0,0,0-.54.49l-1.33,4-7.84-16.23,16.26,8.13-3.6,1.14a.76.76,0,0,0-.5.54.77.77,0,0,0,.2.72l4.92,4.92Z"/><path class="cls-4" d="M154.11,73.24a8.33,8.33,0,0,0,5.33-1.93l6.46,6.46A.75.75,0,1,0,167,76.71l-6.47-6.47a8.24,8.24,0,0,0,1.93-5.32,8.32,8.32,0,1,0-8.32,8.32Zm0-15.14a6.82,6.82,0,1,1-6.81,6.82A6.83,6.83,0,0,1,154.11,58.1Z"/><path class="cls-4" d="M159.79,64.92a.76.76,0,0,0-.75-.76h-9.85a.76.76,0,0,0,0,1.51H159A.76.76,0,0,0,159.79,64.92Z"/><path class="cls-4" d="M220.68,176.23a5.35,5.35,0,0,0-8.63,1.53L209.27,175a1,1,0,0,0-1.35,0l-12.68,12.68a1,1,0,0,0,0,1.35l12.68,12.68a1,1,0,0,0,.67.28,1,1,0,0,0,.68-.28l4-4.05a1,1,0,0,0-.61-1.62,3.46,3.46,0,0,1-2.18-1,3.45,3.45,0,0,1,2.44-5.88,3.43,3.43,0,0,1,3.43,3.19,1,1,0,0,0,1.63.6l3.92-3.92a1,1,0,0,0,0-1.35l-2.78-2.78a5.57,5.57,0,0,0,1.52-1.07A5.35,5.35,0,0,0,220.68,176.23Z"/></g><g class="cls-3"><rect class="cls-4" x="23.62" y="65.55" width="83.69" height="20.99" rx="4.91" ry="4.91"/><path class="cls-4" d="M135.79,185.34l-13.4-35.41-13.51-35.71a3.67,3.67,0,0,0-4.71-2.13l-3.57,1.35a3.65,3.65,0,0,0-2.12,4.71L112,153.87l1.16,3.07L99.58,121.06c-.47.82-.93,1.58-1.39,2.36v0c-9.15,15.44-18.24,23.94-24.7,28.5h0c-.65.46-1.26.88-1.85,1.26h0s0,0,0,0a1.83,1.83,0,0,0-2.24-.83L62.55,155,40.6,163.27a9.17,9.17,0,0,0-5.32,11.79L37,179.57h0l3.36,8.89a9.18,9.18,0,0,0,11.79,5.32l7-2.66-2,.77L67.77,220a1.61,1.61,0,0,0,2.08.93L82,216.37s.07-.05.11-.07l.24-.06a5.12,5.12,0,0,0,3-6.61,5,5,0,0,0-1.56-2.14h0A4.28,4.28,0,0,0,83,207c-1.21-1-3.72-3.67-6.89-10.75l-3.2-8.46h0l-.6-1.59,1.82-.69,6.84-2.59a1.82,1.82,0,0,0,1.13-2.1h0c.69-.1,1.43-.2,2.21-.28h0c7.87-.86,20.31-.5,37.38,5h0c.86.28,1.71.54,2.6.86l1.1,2.9a3.66,3.66,0,0,0,4.71,2.13l3.57-1.35A3.66,3.66,0,0,0,135.79,185.34Z"/></g><rect class="cls-5" x="19.58" y="61.49" width="83.69" height="20.99" rx="4.91" ry="4.91"/><path class="cls-6" d="M40.29,61.49H24.49a4.93,4.93,0,0,0-4.91,4.91V77.57a4.93,4.93,0,0,0,4.91,4.91h15.8Z"/><rect class="cls-7" x="45.69" y="69.7" width="49.59" height="4.57"/><rect class="cls-8" x="45.69" y="69.7" width="36.2" height="4.57"/><path class="cls-5" d="M35.68,72a5.75,5.75,0,1,1-5.75-5.75A5.74,5.74,0,0,1,35.68,72Z"/><path class="cls-8" d="M27.69,74.38c0,.48.33.66.74.41l3.86-2.35a.49.49,0,0,0,0-.91l-3.86-2.36c-.41-.25-.74-.06-.74.42Z"/><path class="cls-8" d="M86,72a3.51,3.51,0,1,1-3.51-3.51A3.51,3.51,0,0,1,86,72Z"/><path class="cls-9" d="M162.49,132.58a1.69,1.69,0,0,1-1.05,2.14L132,144.77a1.69,1.69,0,0,1-2.14-1.05h0a1.69,1.69,0,0,1,1.05-2.14l29.49-10.05a1.69,1.69,0,0,1,2.14,1.05Z"/><path class="cls-9" d="M140.66,98.37a1.68,1.68,0,0,1,.77,2.25l-13.74,28a1.69,1.69,0,0,1-2.26.77h0a1.69,1.69,0,0,1-.77-2.25l13.75-28a1.68,1.68,0,0,1,2.25-.77Z"/><path class="cls-9" d="M166.11,173a1.69,1.69,0,0,0-.77-2.26l-28-13.74a1.69,1.69,0,0,0-2.26.77h0a1.69,1.69,0,0,0,.77,2.26l28,13.74a1.69,1.69,0,0,0,2.26-.77Z"/><path class="cls-10" d="M76.7,203.41h0a5.71,5.71,0,0,0-.77-.51c-1.21-1-3.72-3.67-6.89-10.75l-3.8-10-15.14,5.73L60.72,216a1.62,1.62,0,0,0,2.08.94l12.13-4.59.11-.07.24-.07a5.12,5.12,0,0,0,3-6.61,5,5,0,0,0-1.56-2.14Z"/><path class="cls-9" d="M76.7,203.41h0a5.71,5.71,0,0,0-.77-.51c-1.21-1-3.72-3.67-6.89-10.75l-3.8-10-6.81,2.58,11.22,29.64,5.3-2,.11-.07.24-.07a5.12,5.12,0,0,0,3-6.61,5,5,0,0,0-1.56-2.14Z"/><path class="cls-10" d="M60.17,151.63l9.89,26.13c6.15-1.72,21.82-4.2,47.18,4.55L92.53,117C79.3,140.34,65.93,148.86,60.17,151.63Z"/><path class="cls-9" d="M65.13,164.74l39.77-15.05L92.53,117c-13.23,23.34-26.6,31.86-32.36,34.63Z"/><path class="cls-4" d="M62.34,148.31,55.5,150.9l-22,8.31A9.16,9.16,0,0,0,28.23,171l5.07,13.4a9.17,9.17,0,0,0,11.79,5.32l22-8.31,6.84-2.59a1.82,1.82,0,0,0,1.06-2.35l-2.59-6.84-5.06-13.4-2.59-6.84A1.84,1.84,0,0,0,62.34,148.31Z"/><rect class="cls-11" x="49.85" y="184.9" width="16.19" height="1.7" transform="translate(-61.99 32.53) rotate(-20.73)"/><path class="cls-11" d="M114.64,181.46c.86.28,1.71.54,2.6.85L92.53,117c-.46.81-.93,1.57-1.39,2.35Z"/><path class="cls-12" d="M62.34,148.31l-28.79,10.9A9.16,9.16,0,0,0,28.23,171l1.71,4.52a3.6,3.6,0,0,0,4.18,1.29l32.55-12.32A3.6,3.6,0,0,0,69,160.61L64.7,149.38A1.84,1.84,0,0,0,62.34,148.31Z"/><path class="cls-13" d="M104.94,149.8l13.4,35.41a3.66,3.66,0,0,0,4.71,2.13l3.57-1.35a3.67,3.67,0,0,0,2.13-4.71l-13.4-35.42Z"/><path class="cls-8" d="M101.83,110.15A3.67,3.67,0,0,0,97.12,108l-3.57,1.35a3.68,3.68,0,0,0-2.12,4.72l13.51,35.71,10.41-3.94Z"/><path class="cls-11" d="M75,176.71c.69-.1,1.43-.19,2.22-.28L66.45,147.87c-.64.45-1.26.87-1.85,1.25Z"/><path class="cls-9" d="M279.73,146.43a3.41,3.41,0,0,1-3.4,3.42l-30,.09a3.41,3.41,0,0,1-3.42-3.4l-.18-59a3.4,3.4,0,0,1,3.4-3.42l30-.1a3.41,3.41,0,0,1,3.42,3.4Z"/><path class="cls-14" d="M263.79,144.77a2.47,2.47,0,1,1-2.48-2.46A2.47,2.47,0,0,1,263.79,144.77Z"/><rect class="cls-14" x="256.71" y="87.51" width="8.86" height="0.68" transform="translate(-0.26 0.78) rotate(-0.17)"/><rect class="cls-8" x="246" y="90.63" width="30.45" height="49.32" transform="translate(-0.35 0.8) rotate(-0.18)"/><path class="cls-9" d="M209.07,80.68l1.24,1.2,2.54-2.61-1.24-1.21a10,10,0,0,0,1.53-3.86l1.73,0-.05-3.65-1.73,0a10,10,0,0,0-1.64-3.81l1.2-1.24L210,63l-1.2,1.24A10,10,0,0,0,205,62.68L205,61l-3.65,0,0,1.73a10,10,0,0,0-3.8,1.64l-1.25-1.2-2.54,2.61L195,67a9.8,9.8,0,0,0-1.52,3.86l-1.74,0,.06,3.65,1.73,0a10,10,0,0,0,1.64,3.81l-1.2,1.24,2.61,2.55,1.21-1.25a9.83,9.83,0,0,0,3.85,1.53l0,1.73,3.65,0,0-1.73a10,10,0,0,0,3.81-1.64m-13.15-8.05a7.38,7.38,0,1,1,7.48,7.27,7.37,7.37,0,0,1-7.48-7.27"/><path class="cls-9" d="M187.53,52,187.05,51l-2.67,1.19.48,1.07A6.5,6.5,0,0,0,183.21,55l-1.11-.43-1,2.74,1.1.42a7.1,7.1,0,0,0,.06,2.39l-1.08.48,1.19,2.67,1.08-.47a6.83,6.83,0,0,0,1.74,1.65l-.43,1.1,2.74,1,.42-1.1a6.85,6.85,0,0,0,2.39-.06l.48,1.08,2.68-1.19-.49-1.08a6.82,6.82,0,0,0,1.66-1.73l1.1.42,1.05-2.73-1.1-.42a6.91,6.91,0,0,0-.06-2.4l1.08-.48-1.19-2.67-1.08.48A6.78,6.78,0,0,0,192.66,53l.42-1.11-2.73-1.05L189.92,52a6.62,6.62,0,0,0-2.39.06m5.54,4.82a4.45,4.45,0,0,1,.4,1.79,4.57,4.57,0,0,1-8.75,1.92,4.43,4.43,0,0,1-.39-1.78,4.57,4.57,0,0,1,8.74-1.93"/><path class="cls-14" d="M23.23,20.14c2.74,0,4.32,1.42,4.32,5S26,30.23,23.23,30.23H19.77V20.14Zm-.09,8.34c1.26,0,2.05-.59,2.05-3.3s-.79-3.29-2.05-3.29H22v6.59Z"/><path class="cls-14" d="M30.49,20.27a4.11,4.11,0,0,1,1.11-.13,4.28,4.28,0,0,1,1.13.13V30.1a4.43,4.43,0,0,1-1.12.13,3.81,3.81,0,0,1-1.12-.13Z"/><path class="cls-14" d="M40.31,20a6.18,6.18,0,0,1,2.84.56,2.27,2.27,0,0,1-.63,1.56,6.36,6.36,0,0,0-2-.34C39,21.78,38,22.54,38,25.2s1,3.36,2.52,3.36c.34,0,.69,0,.69,0V26.05H39.66a2.09,2.09,0,0,1-.14-.84,2.29,2.29,0,0,1,.14-.87h3.63v5.47a6.86,6.86,0,0,1-3,.56c-3,0-4.65-1.81-4.65-5.19S37.29,20,40.31,20Z"/><path class="cls-14" d="M46.37,20.27a4.08,4.08,0,0,1,1.1-.13,4.41,4.41,0,0,1,1.14.13V30.1a4.43,4.43,0,0,1-1.12.13,3.72,3.72,0,0,1-1.12-.13Z"/><path class="cls-14" d="M58.51,20.14a3,3,0,0,1,.14.93,3.25,3.25,0,0,1-.14.95H56.07V30.1a4.43,4.43,0,0,1-1.12.13,3.69,3.69,0,0,1-1.11-.13V22h-2.5a2.8,2.8,0,0,1-.14-.93,3.08,3.08,0,0,1,.14-.95Z"/><path class="cls-14" d="M64.12,20.14a6.08,6.08,0,0,1,1.41.13l3.2,9.83a4.12,4.12,0,0,1-1.18.13,3.42,3.42,0,0,1-1.08-.13l-.66-2H62.3l-.66,2a4,4,0,0,1-1.09.13,3.51,3.51,0,0,1-1-.13l3.19-9.83A6.68,6.68,0,0,1,64.12,20.14Zm-.1,2.1a10.62,10.62,0,0,1-.38,1.64l-.82,2.54H65.3l-.82-2.54a11.12,11.12,0,0,1-.4-1.64Z"/><path class="cls-14" d="M71.2,20.27a4.11,4.11,0,0,1,1.11-.13,4.28,4.28,0,0,1,1.13.13v8.14h3.93a3,3,0,0,1,.14.91,3.52,3.52,0,0,1-.14.91H71.2Z"/><path class="cls-14" d="M28,36.53a10.23,10.23,0,0,1,1.47.13v9.83a3.62,3.62,0,0,1-1.07.13,3.78,3.78,0,0,1-1.09-.13V43.55c0-1.64.09-3.69.18-4.44H27.4c-.17.6-.74,2.13-1.22,3.28l-.91,2.14a2.6,2.6,0,0,1-.8.1,2,2,0,0,1-.74-.1c-.29-.69-.6-1.37-.88-2.06a31.19,31.19,0,0,1-1.26-3.36H21.5a29.66,29.66,0,0,1,.24,4.21v3.17a3.18,3.18,0,0,1-1,.13,3.38,3.38,0,0,1-1-.13V36.66a8.76,8.76,0,0,1,1.37-.13,6.54,6.54,0,0,1,1.34.13l1.1,2.57a20.4,20.4,0,0,1,1,2.71h.07a8.85,8.85,0,0,1,.48-1.6c.49-1.2,1-2.46,1.55-3.68A6.24,6.24,0,0,1,28,36.53Z"/><path class="cls-14" d="M36.53,36.53a6.08,6.08,0,0,1,1.41.13l3.19,9.83a4.08,4.08,0,0,1-1.17.13,3.42,3.42,0,0,1-1.08-.13l-.66-2H34.7l-.65,2a4,4,0,0,1-1.1.13,3.48,3.48,0,0,1-1-.13l3.19-9.83A6.56,6.56,0,0,1,36.53,36.53Zm-.1,2.1a10.62,10.62,0,0,1-.38,1.64l-.83,2.54H37.7l-.81-2.54a12.48,12.48,0,0,1-.41-1.64Z"/><path class="cls-14" d="M47.46,36.53c2.14,0,3.31,1.25,3.31,3.1A2.85,2.85,0,0,1,49,42.43l2.28,4.06a5.18,5.18,0,0,1-1.28.13,4.87,4.87,0,0,1-1.23-.13l-2.07-3.78h-.87v3.78a4.11,4.11,0,0,1-1.11.13,3.84,3.84,0,0,1-1.13-.13v-10ZM45.85,41h1.29a1.35,1.35,0,0,0,0-2.7H45.85Z"/><path class="cls-14" d="M59,36.66a4.72,4.72,0,0,1,1.12-.13,5.53,5.53,0,0,1,1.19.13l-2.8,4.52,3.23,5.31a5.83,5.83,0,0,1-1.31.13,4.77,4.77,0,0,1-1.23-.13l-2.61-4.27H56.1v4.27a3.57,3.57,0,0,1-1.12.13,4,4,0,0,1-1.12-.13V36.66A4,4,0,0,1,55,36.53a3.94,3.94,0,0,1,1.11.13v3.88h.53Z"/><path class="cls-14" d="M70.23,36.53a2.67,2.67,0,0,1,.14.81,2.93,2.93,0,0,1-.14.9h-3.9v2.44h3.19a2.62,2.62,0,0,1,0,1.69H66.33v2.54h4a2.59,2.59,0,0,1,.14.84,2.69,2.69,0,0,1-.14.87H64.09V36.53Z"/><path class="cls-14" d="M79.89,36.53a3,3,0,0,1,.14.93,3.25,3.25,0,0,1-.14.95H77.45v8.08a4.43,4.43,0,0,1-1.12.13,3.61,3.61,0,0,1-1.11-.13V38.41H72.71a2.87,2.87,0,0,1-.14-.93,3.08,3.08,0,0,1,.14-.95Z"/><path class="cls-14" d="M82.61,36.66a4.11,4.11,0,0,1,1.11-.13,4.28,4.28,0,0,1,1.13.13v9.83a4.43,4.43,0,0,1-1.12.13,3.81,3.81,0,0,1-1.12-.13Z"/><path class="cls-14" d="M90.87,41.38A17.58,17.58,0,0,1,90.05,39H90a25.08,25.08,0,0,1,.14,2.68v4.79a3,3,0,0,1-1,.13,2.65,2.65,0,0,1-1-.13V36.66a5.91,5.91,0,0,1,1.42-.13,5.38,5.38,0,0,1,1.39.13l2.33,5.07a21,21,0,0,1,.86,2.51h.06s-.13-1.35-.13-2.85V36.66a3.33,3.33,0,0,1,1-.13,2.75,2.75,0,0,1,1,.13v9.83a5.43,5.43,0,0,1-1.4.13,6.45,6.45,0,0,1-1.42-.13Z"/><path class="cls-14" d="M103.64,36.39a6.26,6.26,0,0,1,2.85.56,2.33,2.33,0,0,1-.63,1.56,6.46,6.46,0,0,0-2-.34c-1.52,0-2.57.76-2.57,3.42s1,3.36,2.52,3.36c.33,0,.68,0,.68,0V42.44H103a2.09,2.09,0,0,1-.14-.84,2.29,2.29,0,0,1,.14-.87h3.63V46.2a6.94,6.94,0,0,1-3,.56c-3,0-4.65-1.81-4.65-5.19S100.63,36.39,103.64,36.39Z"/><path class="cls-4" d="M258.81,37.13a1.55,1.55,0,0,0,1.17.54,3.06,3.06,0,0,0,1.3-.41l-2.63-2.63A1.76,1.76,0,0,0,258.81,37.13ZM266,38a3,3,0,0,0-1.51.51l2.85,2.85a2,2,0,0,0,.53-1.45,2.27,2.27,0,0,0-.73-1.36A1.66,1.66,0,0,0,266,38Zm-4.1-19.07H251.79l-3.27,3.27-2.5-2.5a.83.83,0,0,0-1.18,0l-.74.73a.86.86,0,0,0,0,1.19l2.5,2.5-3.27,3.27v10l20.85,20.84,18.51-18.51Zm-8.65,9.86a3.34,3.34,0,0,1-5.49-3.53l1.58,1.58a.85.85,0,0,0,1.18,0l.74-.74a.83.83,0,0,0,0-1.18l-1.59-1.6a3.34,3.34,0,0,1,3.58.75A3.34,3.34,0,0,1,253.23,28.76Zm16.06,16.51-1.16-1.16a8.1,8.1,0,0,1-1.75,1.15,4.25,4.25,0,0,1-3.6.1,6.68,6.68,0,0,1-1.87-1.2l2.1-2.11a3.18,3.18,0,0,0,1.67.8,2.38,2.38,0,0,0,1.66-.53l-3.12-3.12a11,11,0,0,1-1.66.92,5.65,5.65,0,0,1-1.67.46,3.91,3.91,0,0,1-1.63-.19,4,4,0,0,1-1.55-1,4.51,4.51,0,0,1-1-1.49,3.63,3.63,0,0,1-.31-1.62,4.77,4.77,0,0,1,.4-1.72,7.1,7.1,0,0,1,1.08-1.7l-1.13-1.13,1-1,1.15,1.16a5.15,5.15,0,0,1,3.23-1.38,4.54,4.54,0,0,1,3.09,1.22l-2.13,2.13a1.83,1.83,0,0,0-2.39-.18l2.85,2.85a16.94,16.94,0,0,1,1.81-1A5.23,5.23,0,0,1,266,35a3.49,3.49,0,0,1,1.63.19,4.37,4.37,0,0,1,1.56,1.06,5.06,5.06,0,0,1,1.11,1.61,4.29,4.29,0,0,1,.32,1.76,4.7,4.7,0,0,1-.41,1.8,6.62,6.62,0,0,1-1.11,1.72l1.15,1.15Z"/><path class="cls-4" d="M318.78,75h-2.3V72.19a7.92,7.92,0,0,0-7.92-7.92h-.23a7.92,7.92,0,0,0-7.92,7.92V75h-2.29a.53.53,0,0,0-.53.52v16a.52.52,0,0,0,.52.52h20.67a.53.53,0,0,0,.52-.52v-16A.53.53,0,0,0,318.78,75Zm-7.62,12.54.17.63h-5.77l.17-.63.94-3.47a2.91,2.91,0,1,1,3.55,0ZM302.05,75V72.35a6.39,6.39,0,1,1,12.78,0V75Z"/><path class="cls-4" d="M226,99.19H199.09a.8.8,0,0,0-.79.79v17.89a.8.8,0,0,0,.79.78H212.7l9.8,6.28a.51.51,0,0,0,.2.1.74.74,0,0,0,0-.22v-6.16H226a.78.78,0,0,0,.78-.78V100A.79.79,0,0,0,226,99.19Z"/><polygon class="cls-4" points="249.14 166.07 243.97 165.11 241.43 160.51 238.91 165.13 233.76 166.13 237.37 169.94 236.72 175.16 241.47 172.9 246.23 175.12 245.55 169.91 249.14 166.07"/><polygon class="cls-4" points="316.13 31.65 310.97 30.68 308.42 26.09 305.91 30.7 300.75 31.7 304.37 35.52 303.72 40.73 308.47 38.48 313.23 40.7 312.55 35.49 316.13 31.65"/><polygon class="cls-4" points="173.75 98.43 168.58 97.47 166.04 92.87 163.53 97.49 158.37 98.48 161.98 102.3 161.34 107.52 166.08 105.26 170.84 107.48 170.16 102.27 173.75 98.43"/><path class="cls-4" d="M297.7,180.83V162.77a18.07,18.07,0,1,0,18.06,18.06Zm17.81-2.89a18,18,0,0,0-4.38-9.14l0,0s0,0,0,0l-.5-.52-8.16,9.67Zm-8.75-12.7-.05,0c-.43-.25-.87-.47-1.32-.68l-.27-.13q-.57-.26-1.17-.48l-.38-.13c-.38-.14-.77-.25-1.16-.36l-.4-.11c-.52-.13-1.05-.24-1.58-.32v13.14l8.16-9.68A20.06,20.06,0,0,0,306.76,165.24Z"/><path class="cls-9" d="M262.11,199H242.22a.75.75,0,0,0-.75.75v4.71a.47.47,0,0,0,0,.17.44.44,0,0,0,0,.16v8.38a.75.75,0,0,0,.75.75h19.89a.76.76,0,0,0,.76-.75V199.7A.76.76,0,0,0,262.11,199Zm-.75,1.51v3.36H243v-3.36ZM243,212.36v-7h18.39v7Z"/><path class="cls-9" d="M194.45,136.55a10.7,10.7,0,0,0-7.6,18.23l0,0h0a10.7,10.7,0,1,0,7.56-18.27Zm0,1.51a9.13,9.13,0,0,1,5.93,2.18l-12.95,12.94a9.19,9.19,0,0,1,7-15.12Zm0,18.39a9.12,9.12,0,0,1-5.95-2.2l12.94-12.95a9.19,9.19,0,0,1-7,15.15Z"/><path class="cls-9" d="M219.27,16.29a.75.75,0,0,0-.76.75v4.47A10.7,10.7,0,1,0,220,27a.76.76,0,1,0-1.51,0,9.19,9.19,0,1,1-.83-3.83h-5.29a.76.76,0,1,0,0,1.51h6.88a.76.76,0,0,0,.75-.75V17A.75.75,0,0,0,219.27,16.29Z"/><path class="cls-9" d="M314.39,128.17l4.18-1.34a.75.75,0,0,0,.53-.66.78.78,0,0,0-.42-.73l-19.89-10a.76.76,0,0,0-.87.14.75.75,0,0,0-.15.86l9.61,19.9a.77.77,0,0,0,.68.42h.05a.76.76,0,0,0,.67-.51l1.53-4.58,4.84,4.84a.79.79,0,0,0,1.07,0l2.75-2.75a.77.77,0,0,0,0-1.07Zm1.3,6.79-5.18-5.17a.73.73,0,0,0-.53-.22.55.55,0,0,0-.18,0,.76.76,0,0,0-.54.49l-1.32,4-7.85-16.23L316.35,126l-3.59,1.15a.76.76,0,0,0-.51.53.79.79,0,0,0,.2.72l4.92,4.92Z"/><path class="cls-9" d="M150.65,70.66A8.33,8.33,0,0,0,156,68.73l6.47,6.46a.74.74,0,0,0,.53.23.75.75,0,0,0,.53-.23.74.74,0,0,0,0-1.06L157,67.66A8.25,8.25,0,0,0,159,62.34a8.33,8.33,0,1,0-8.33,8.32Zm0-15.14a6.82,6.82,0,1,1-6.81,6.82A6.83,6.83,0,0,1,150.65,55.52Z"/><path class="cls-9" d="M156.33,62.34a.76.76,0,0,0-.75-.76h-9.85a.76.76,0,0,0,0,1.51h9.85A.76.76,0,0,0,156.33,62.34Z"/><path class="cls-9" d="M205.13,199.38a1,1,0,0,1-.67-.28l-12.68-12.68a1,1,0,0,1,0-1.35l12.68-12.67a.94.94,0,0,1,1.35,0l2.78,2.78a5.35,5.35,0,1,1,7.11,7.11l2.78,2.78a1,1,0,0,1,0,1.35l-3.92,3.92a1,1,0,0,1-1.63-.6,3.44,3.44,0,1,0-5.87,2.69,3.48,3.48,0,0,0,2.19,1,.95.95,0,0,1,.6,1.62l-4,4A1,1,0,0,1,205.13,199.38Z"/></svg>